<svg id="Mark" xmlns="http://www.w3.org/2000/svg" viewBox="0 0 691.7 130"><defs><style>.cls-1{fill:#fff;}</style></defs><title>meteor-brandmark</title><path class="cls-1" d="M18.62,133H5.43a2.79,2.79,0,0,1-2.79-2.79V5.79A2.79,2.79,0,0,1,5.43,3h11a2.79,2.79,0,0,1,2.3,1.22L58.47,62.75a2.79,2.79,0,0,0,4.61,0L102.85,4.22A2.79,2.79,0,0,1,105.15,3h10.6a2.79,2.79,0,0,1,2.79,2.79V130.21a2.79,2.79,0,0,1-2.79,2.79h-13a2.79,2.79,0,0,1-2.79-2.79V50.57A2.79,2.79,0,0,0,94.87,49L66.81,90.73A2.79,2.79,0,0,1,64.5,92H56.88a2.79,2.79,0,0,1-2.31-1.23L26.5,49a2.79,2.79,0,0,0-5.1,1.55v79.64A2.79,2.79,0,0,1,18.62,133Z" transform="translate(-2.65 -3)"/><path class="cls-1" d="M162.72,114.24h54.79a2.79,2.79,0,0,1,2.79,2.79v13.19a2.79,2.79,0,0,1-2.79,2.79H143.78a2.79,2.79,0,0,1-2.79-2.79V6a2.79,2.79,0,0,1,2.79-2.79h73.54A2.79,2.79,0,0,1,220.11,6V19.16a2.79,2.79,0,0,1-2.79,2.79h-54.6a2.79,2.79,0,0,0-2.79,2.79v31a2.79,2.79,0,0,0,2.79,2.79H216a2.79,2.79,0,0,1,2.79,2.79V74.69A2.79,2.79,0,0,1,216,77.47h-53.3a2.79,2.79,0,0,0-2.79,2.79v31.2A2.79,2.79,0,0,0,162.72,114.24Z" transform="translate(-2.65 -3)"/><path class="cls-1" d="M275.26,130.21V23.61a2.79,2.79,0,0,0-2.79-2.79h-33.8A2.79,2.79,0,0,1,235.89,18V5.79A2.79,2.79,0,0,1,238.67,3h91.74a2.79,2.79,0,0,1,2.79,2.79V18a2.79,2.79,0,0,1-2.79,2.79H296.8A2.79,2.79,0,0,0,294,23.61v106.6a2.79,2.79,0,0,1-2.79,2.79H278A2.79,2.79,0,0,1,275.26,130.21Z" transform="translate(-2.65 -3)"/><path class="cls-1" d="M625.85,69.86a2.79,2.79,0,0,1,2.79-2.79h19.13c15.78,0,23.58-11.33,23.58-22.66,0-11.14-7.8-22.47-23.58-22.47h-26A2.79,2.79,0,0,0,619,24.73V130.21A2.79,2.79,0,0,1,616.2,133h-13a2.79,2.79,0,0,1-2.79-2.79V5.79A2.79,2.79,0,0,1,603.2,3h44.57C676,3,690.11,23.8,690.11,44.41c0,17.13-9.84,33.46-29.21,38.76a2.79,2.79,0,0,0-1.46,4.49l34.25,40.76a2.79,2.79,0,0,1-2.13,4.58h-17a2.79,2.79,0,0,1-2.14-1L626.5,76.76a2.79,2.79,0,0,1-.64-1.78Z" transform="translate(-2.65 -3)"/><path class="cls-1" d="M512.4,133a63.74,63.74,0,0,0,45.77-19.13,65.19,65.19,0,0,0,0-91.55A64.47,64.47,0,0,0,512.4,3.19H360.21a9.38,9.38,0,0,0-9.38,9.38h0a9.38,9.38,0,0,0,9.38,9.38h107l-.39.38a66.54,66.54,0,0,0-16.67,29.42,9,9,0,0,1-8.73,6.79H360a9.38,9.38,0,0,0-9.38,9.38v.19A9.38,9.38,0,0,0,360,77.47h81.34a9,9,0,0,1,8.73,6.81,66.52,66.52,0,0,0,16.71,29.58l.38.38H360a9.38,9.38,0,0,0-9.38,9.38h0A9.38,9.38,0,0,0,360,133H512.4Zm32.72-32.19a46.29,46.29,0,0,1-32.72,13.77A45.15,45.15,0,0,1,480,100.81a46.19,46.19,0,0,1,0-65.44A45.15,45.15,0,0,1,512.4,21.6a46.53,46.53,0,0,1,32.72,79.21Z" transform="translate(-2.65 -3)"/></svg>